REM DIRINDEX 1\2\6,1\2\7,1\2\8,1\3\9,1\3\10,1\3\11,1\4\12,1\4\13,1\4\14,1\5\15,1\5\16,1\5\17,1\5\18
REM DIRNAME cjc019,folder01,folder02,folder03,folder04,folder05,folder06,folder07,folder08,folder09,folder10,folder11,folder12,folder13,folder14,folder15,folder16,folder17
TITLE ""
FILE "2Q_j_1320-1333.mp3" MP3
  TRACK 01 AUDIO
    TITLE "6:cjc019_0422"
    INDEX 01 00:00:00
  TRACK 02 AUDIO
    TITLE "0:"
    INDEX 01 00:01:03
  TRACK 03 AUDIO
    TITLE "7:cjc019_0423"
    INDEX 01 00:01:71
  TRACK 04 AUDIO
    TITLE "0:"
    INDEX 01 00:05:28
  TRACK 05 AUDIO
    TITLE "8:cjc019_0424"
    INDEX 01 00:06:08
  TRACK 06 AUDIO
    TITLE "0:"
    INDEX 01 00:10:29
  TRACK 07 AUDIO
    TITLE "6:cjc019_0425"
    INDEX 01 00:11:07
  TRACK 08 AUDIO
    TITLE "0:"
    INDEX 01 00:12:20
  TRACK 09 AUDIO
    TITLE "7:cjc019_0426"
    INDEX 01 00:13:02
  TRACK 10 AUDIO
    TITLE "0:"
    INDEX 01 00:16:02
  TRACK 11 AUDIO
    TITLE "8:cjc019_0427"
    INDEX 01 00:16:51
  TRACK 12 AUDIO
    TITLE "0:"
    INDEX 01 00:21:49
  TRACK 13 AUDIO
    TITLE "6:cjc019_0428"
    INDEX 01 00:22:30
  TRACK 14 AUDIO
    TITLE "0:"
    INDEX 01 00:23:55
  TRACK 15 AUDIO
    TITLE "7:cjc019_0429"
    INDEX 01 00:24:43
  TRACK 16 AUDIO
    TITLE "0:"
    INDEX 01 00:27:08
  TRACK 17 AUDIO
    TITLE "8:cjc019_0430"
    INDEX 01 00:27:63
  TRACK 18 AUDIO
    TITLE "0:"
    INDEX 01 00:31:35
  TRACK 19 AUDIO
    TITLE "6:cjc019_0431"
    INDEX 01 00:32:19
  TRACK 20 AUDIO
    TITLE "0:"
    INDEX 01 00:33:34
  TRACK 21 AUDIO
    TITLE "7:cjc019_0432"
    INDEX 01 00:34:20
  TRACK 22 AUDIO
    TITLE "0:"
    INDEX 01 00:38:51
  TRACK 23 AUDIO
    TITLE "8:cjc019_0433"
    INDEX 01 00:39:29
  TRACK 24 AUDIO
    TITLE "0:"
    INDEX 01 00:44:42
  TRACK 25 AUDIO
    TITLE "6:cjc019_0434"
    INDEX 01 00:45:26
  TRACK 26 AUDIO
    TITLE "0:"
    INDEX 01 00:46:60
  TRACK 27 AUDIO
    TITLE "7:cjc019_0435"
    INDEX 01 00:47:46
  TRACK 28 AUDIO
    TITLE "0:"
    INDEX 01 00:50:58
  TRACK 29 AUDIO
    TITLE "8:cjc019_0436"
    INDEX 01 00:51:36
  TRACK 30 AUDIO
    TITLE "0:"
    INDEX 01 00:54:46
  TRACK 31 AUDIO
    TITLE "6:cjc019_0437"
    INDEX 01 00:55:32
  TRACK 32 AUDIO
    TITLE "0:"
    INDEX 01 00:56:61
  TRACK 33 AUDIO
    TITLE "7:cjc019_0438"
    INDEX 01 00:57:41
  TRACK 34 AUDIO
    TITLE "0:"
    INDEX 01 00:59:39
  TRACK 35 AUDIO
    TITLE "8:cjc019_0439"
    INDEX 01 01:00:25
  TRACK 36 AUDIO
    TITLE "0:"
    INDEX 01 01:03:51
  TRACK 37 AUDIO
    TITLE "6:cjc019_0440"
    INDEX 01 01:04:35
  TRACK 38 AUDIO
    TITLE "0:"
    INDEX 01 01:05:50
  TRACK 39 AUDIO
    TITLE "7:cjc019_0441"
    INDEX 01 01:06:34
  TRACK 40 AUDIO
    TITLE "0:"
    INDEX 01 01:08:58
  TRACK 41 AUDIO
    TITLE "8:cjc019_0442"
    INDEX 01 01:09:36
  TRACK 42 AUDIO
    TITLE "0:"
    INDEX 01 01:12:44
  TRACK 43 AUDIO
    TITLE "6:cjc019_0443"
    INDEX 01 01:13:26
  TRACK 44 AUDIO
    TITLE "0:"
    INDEX 01 01:14:39
  TRACK 45 AUDIO
    TITLE "7:cjc019_0444"
    INDEX 01 01:15:29
  TRACK 46 AUDIO
    TITLE "0:"
    INDEX 01 01:18:62
  TRACK 47 AUDIO
    TITLE "8:cjc019_0445"
    INDEX 01 01:19:42
  TRACK 48 AUDIO
    TITLE "0:"
    INDEX 01 01:24:57
  TRACK 49 AUDIO
    TITLE "6:cjc019_0446"
    INDEX 01 01:25:39
  TRACK 50 AUDIO
    TITLE "0:"
    INDEX 01 01:26:54
  TRACK 51 AUDIO
    TITLE "7:cjc019_0447"
    INDEX 01 01:27:44
  TRACK 52 AUDIO
    TITLE "0:"
    INDEX 01 01:29:50
  TRACK 53 AUDIO
    TITLE "8:cjc019_0448"
    INDEX 01 01:30:32
  TRACK 54 AUDIO
    TITLE "0:"
    INDEX 01 01:34:30
  TRACK 55 AUDIO
    TITLE "6:cjc019_0449"
    INDEX 01 01:35:16
  TRACK 56 AUDIO
    TITLE "0:"
    INDEX 01 01:36:43
  TRACK 57 AUDIO
    TITLE "7:cjc019_0450"
    INDEX 01 01:37:24
  TRACK 58 AUDIO
    TITLE "0:"
    INDEX 01 01:39:23
  TRACK 59 AUDIO
    TITLE "8:cjc019_0451"
    INDEX 01 01:39:74
  TRACK 60 AUDIO
    TITLE "0:"
    INDEX 01 01:44:11
  TRACK 61 AUDIO
    TITLE "6:cjc019_0452"
    INDEX 01 01:44:68
  TRACK 62 AUDIO
    TITLE "0:"
    INDEX 01 01:46:08
  TRACK 63 AUDIO
    TITLE "7:cjc019_0453"
    INDEX 01 01:46:65
  TRACK 64 AUDIO
    TITLE "0:"
    INDEX 01 01:51:01
  TRACK 65 AUDIO
    TITLE "8:cjc019_0454"
    INDEX 01 01:51:56
  TRACK 66 AUDIO
    TITLE "0:"
    INDEX 01 01:54:64
  TRACK 67 AUDIO
    TITLE "6:cjc019_0455"
    INDEX 01 01:55:46
  TRACK 68 AUDIO
    TITLE "0:"
    INDEX 01 01:57:08
  TRACK 69 AUDIO
    TITLE "7:cjc019_0456"
    INDEX 01 01:57:64
  TRACK 70 AUDIO
    TITLE "0:"
    INDEX 01 01:59:38
  TRACK 71 AUDIO
    TITLE "8:cjc019_0457"
    INDEX 01 02:00:18
  TRACK 72 AUDIO
    TITLE "0:"
    INDEX 01 02:02:40
  TRACK 73 AUDIO
    TITLE "6:cjc019_0458"
    INDEX 01 02:03:22
  TRACK 74 AUDIO
    TITLE "0:"
    INDEX 01 02:04:59
  TRACK 75 AUDIO
    TITLE "7:cjc019_0459"
    INDEX 01 02:05:34
  TRACK 76 AUDIO
    TITLE "0:"
    INDEX 01 02:07:14
  TRACK 77 AUDIO
    TITLE "8:cjc019_0460"
    INDEX 01 02:07:71
  TRACK 78 AUDIO
    TITLE "0:"
    INDEX 01 02:10:63
  TRACK 79 AUDIO
    TITLE "6:cjc019_0461"
    INDEX 01 02:11:47
  TRACK 80 AUDIO
    TITLE "0:"
    INDEX 01 02:12:68
  TRACK 81 AUDIO
    TITLE "7:cjc019_0462"
    INDEX 01 02:13:50
  TRACK 82 AUDIO
    TITLE "0:"
    INDEX 01 02:14:55
  TRACK 83 AUDIO
    TITLE "8:cjc019_0463"
    INDEX 01 02:15:31
  TRACK 84 AUDIO
    TITLE "0:"
    INDEX 01 02:18:63
